<mxfile host="app.diagrams.net" modified="2021-12-21T02:23:39.337Z" agent="5.0 (Windows NT 10.0; Win64; x64) AppleWebKit/537.36 (KHTML, like Gecko) Chrome/96.0.4664.110 Safari/537.36" etag="iyG7o3ODxjO7LQWCDuFX" version="16.0.0" type="github">
  <diagram id="mnE9a7d96re6pAgarRUF" name="Page-1">
    <mxGraphModel dx="899" dy="418" grid="1" gridSize="10" guides="1" tooltips="1" connect="1" arrows="1" fold="1" page="1" pageScale="1" pageWidth="827" pageHeight="1169" math="0" shadow="0">
      <root>
        <mxCell id="0" />
        <mxCell id="1" parent="0" />
        <mxCell id="44etsUOgTRo5WESGzubY-4" value="" style="edgeStyle=orthogonalEdgeStyle;rounded=0;orthogonalLoop=1;jettySize=auto;html=1;fontSize=11;entryX=0.5;entryY=0;entryDx=0;entryDy=0;" edge="1" parent="1" source="44etsUOgTRo5WESGzubY-1" target="44etsUOgTRo5WESGzubY-13">
          <mxGeometry relative="1" as="geometry">
            <mxPoint x="345" y="100" as="targetPoint" />
          </mxGeometry>
        </mxCell>
        <mxCell id="44etsUOgTRo5WESGzubY-1" value="&lt;font style=&quot;font-size: 11px ; line-height: 1&quot;&gt;开始&lt;/font&gt;" style="rounded=1;whiteSpace=wrap;html=1;" vertex="1" parent="1">
          <mxGeometry x="320" y="50" width="50" height="20" as="geometry" />
        </mxCell>
        <mxCell id="44etsUOgTRo5WESGzubY-6" value="" style="edgeStyle=orthogonalEdgeStyle;rounded=0;orthogonalLoop=1;jettySize=auto;html=1;fontSize=11;exitX=0.5;exitY=1;exitDx=0;exitDy=0;entryX=0.5;entryY=0;entryDx=0;entryDy=0;" edge="1" parent="1" source="44etsUOgTRo5WESGzubY-13" target="44etsUOgTRo5WESGzubY-14">
          <mxGeometry relative="1" as="geometry">
            <mxPoint x="345" y="140" as="sourcePoint" />
            <mxPoint x="345" y="180" as="targetPoint" />
          </mxGeometry>
        </mxCell>
        <mxCell id="44etsUOgTRo5WESGzubY-8" value="" style="edgeStyle=orthogonalEdgeStyle;rounded=0;orthogonalLoop=1;jettySize=auto;html=1;fontSize=11;exitX=0.5;exitY=1;exitDx=0;exitDy=0;entryX=0.5;entryY=0;entryDx=0;entryDy=0;" edge="1" parent="1" source="44etsUOgTRo5WESGzubY-14" target="44etsUOgTRo5WESGzubY-15">
          <mxGeometry relative="1" as="geometry">
            <mxPoint x="345" y="230" as="sourcePoint" />
            <mxPoint x="345" y="270" as="targetPoint" />
          </mxGeometry>
        </mxCell>
        <mxCell id="44etsUOgTRo5WESGzubY-10" value="" style="edgeStyle=orthogonalEdgeStyle;rounded=0;orthogonalLoop=1;jettySize=auto;html=1;fontSize=11;exitX=0.5;exitY=1;exitDx=0;exitDy=0;entryX=0.5;entryY=0;entryDx=0;entryDy=0;" edge="1" parent="1" source="44etsUOgTRo5WESGzubY-15" target="44etsUOgTRo5WESGzubY-16">
          <mxGeometry relative="1" as="geometry">
            <mxPoint x="345" y="310" as="sourcePoint" />
            <mxPoint x="345" y="350" as="targetPoint" />
          </mxGeometry>
        </mxCell>
        <mxCell id="44etsUOgTRo5WESGzubY-13" value="&lt;span style=&quot;font-size: 12px&quot;&gt;下载图片&lt;/span&gt;" style="rounded=0;whiteSpace=wrap;html=1;fontSize=11;" vertex="1" parent="1">
          <mxGeometry x="308" y="100" width="74" height="40" as="geometry" />
        </mxCell>
        <mxCell id="44etsUOgTRo5WESGzubY-14" value="&#xa;&#xa;&lt;span style=&quot;color: rgb(0, 0, 0); font-family: helvetica; font-size: 12px; font-style: normal; font-weight: 400; letter-spacing: normal; text-align: center; text-indent: 0px; text-transform: none; word-spacing: 0px; background-color: rgb(248, 249, 250); display: inline; float: none;&quot;&gt;构建特征提取器&lt;/span&gt;&lt;br style=&quot;color: rgb(0, 0, 0); font-family: helvetica; font-size: 12px; font-style: normal; font-weight: 400; letter-spacing: normal; text-align: center; text-indent: 0px; text-transform: none; word-spacing: 0px; background-color: rgb(248, 249, 250);&quot;&gt;&lt;span style=&quot;color: rgb(0, 0, 0); font-family: helvetica; font-size: 12px; font-style: normal; font-weight: 400; letter-spacing: normal; text-align: center; text-indent: 0px; text-transform: none; word-spacing: 0px; background-color: rgb(248, 249, 250); display: inline; float: none;&quot;&gt;提取Haar Feature&lt;/span&gt;&#xa;&#xa;" style="rounded=0;whiteSpace=wrap;html=1;fontSize=11;" vertex="1" parent="1">
          <mxGeometry x="285" y="170" width="120" height="60" as="geometry" />
        </mxCell>
        <mxCell id="44etsUOgTRo5WESGzubY-15" value="&lt;span style=&quot;font-size: 12px&quot;&gt;PCA降维&lt;/span&gt;" style="rounded=0;whiteSpace=wrap;html=1;fontSize=11;" vertex="1" parent="1">
          <mxGeometry x="292.5" y="260" width="105" height="50" as="geometry" />
        </mxCell>
        <mxCell id="44etsUOgTRo5WESGzubY-18" value="" style="edgeStyle=orthogonalEdgeStyle;rounded=0;orthogonalLoop=1;jettySize=auto;html=1;fontSize=11;" edge="1" parent="1" source="44etsUOgTRo5WESGzubY-16" target="44etsUOgTRo5WESGzubY-17">
          <mxGeometry relative="1" as="geometry" />
        </mxCell>
        <mxCell id="44etsUOgTRo5WESGzubY-16" value="训练XGBoost分类器" style="rounded=0;whiteSpace=wrap;html=1;fontSize=11;" vertex="1" parent="1">
          <mxGeometry x="285" y="340" width="120" height="60" as="geometry" />
        </mxCell>
        <mxCell id="44etsUOgTRo5WESGzubY-17" value="测试模型" style="rounded=0;whiteSpace=wrap;html=1;fontSize=11;" vertex="1" parent="1">
          <mxGeometry x="302.5" y="430" width="85" height="40" as="geometry" />
        </mxCell>
      </root>
    </mxGraphModel>
  </diagram>
</mxfile>
